HIERARCHY
ROOT Hips
{
  OFFSET -35.2597 29.1586 114.425
  CHANNELS 6 Xposition Yposition Zposition Zrotation Xrotation Yrotation
  JOINT LeftUpLeg
  {
    OFFSET 8.64259 1.95398 -2.38835
    CHANNELS 3 Zrotation Xrotation Yrotation
    JOINT LeftLeg
    {
      OFFSET 43.7702 0 0
      CHANNELS 3 Zrotation Xrotation Yrotation
      JOINT LeftFoot
      {
        OFFSET 40.6238 0 0
        CHANNELS 3 Zrotation Xrotation Yrotation
        JOINT LeftToeBase
        {
          OFFSET 12.7242 0 0
          CHANNELS 3 Zrotation Xrotation Yrotation
          End Site
          {
            OFFSET 0 0 0
          }
        }
      }
    }
  }
  JOINT RightUpLeg
  {
    OFFSET -8.2249 1.95398 -2.59336
    CHANNELS 3 Zrotation Xrotation Yrotation
    JOINT RightLeg
    {
      OFFSET 43.5653 0 0
      CHANNELS 3 Zrotation Xrotation Yrotation
      JOINT RightFoot
      {
        OFFSET 40.6238 0 0
        CHANNELS 3 Zrotation Xrotation Yrotation
        JOINT RightToeBase
        {
          OFFSET 12.7242 0 0
          CHANNELS 3 Zrotation Xrotation Yrotation
          End Site
          {
            OFFSET 0 0 0
          }
        }
      }
    }
  }
  JOINT Spine
  {
    OFFSET 0.165834 0.87714 6.61349
    CHANNELS 3 Zrotation Xrotation Yrotation
    JOINT Spine1
    {
      OFFSET 7.38963 1.71661e-005 0
      CHANNELS 3 Zrotation Xrotation Yrotation
      JOINT Spine2
      {
        OFFSET 11.9445 1.14441e-005 0
        CHANNELS 3 Zrotation Xrotation Yrotation
        JOINT Spine3
        {
          OFFSET 14.7254 4.19617e-005 0
          CHANNELS 3 Zrotation Xrotation Yrotation
          JOINT Spine4
          {
            OFFSET 10.9679 0 0
            CHANNELS 3 Zrotation Xrotation Yrotation
            JOINT RightShoulder
            {
              OFFSET 2.46616 -1.6653 3.69651
              CHANNELS 3 Zrotation Xrotation Yrotation
              JOINT RightArm
              {
                OFFSET 13.0012 0 0
                CHANNELS 3 Zrotation Xrotation Yrotation
                JOINT RightForeArm
                {
                  OFFSET 28.7848 1.62311e-005 0
                  CHANNELS 3 Zrotation Xrotation Yrotation
                  JOINT RightHand
                  {
                    OFFSET 26.5688 1.62095e-005 0
                    CHANNELS 3 Zrotation Xrotation Yrotation
                    End Site
                    {
                      OFFSET 0 0 0
                    }
                  }
                }
              }
            }
            JOINT LeftShoulder
            {
              OFFSET 2.38034 -1.29275 -3.7523
              CHANNELS 3 Zrotation Xrotation Yrotation
              JOINT LeftArm
              {
                OFFSET 16.3182 6.07031e-005 0
                CHANNELS 3 Zrotation Xrotation Yrotation
                JOINT LeftForeArm
                {
                  OFFSET 27.0901 0 0
                  CHANNELS 3 Zrotation Xrotation Yrotation
                  JOINT LeftHand
                  {
                    OFFSET 24.5451 1.51738e-005 0
                    CHANNELS 3 Zrotation Xrotation Yrotation
                    End Site
                    {
                      OFFSET 0 0 0
                    }
                  }
                }
              }
            }
            JOINT Neck
            {
              OFFSET 5.0226 -0.0266342 0
              CHANNELS 3 Zrotation Xrotation Yrotation
              JOINT Head
              {
                OFFSET 6.69364 2.86102e-005 0
                CHANNELS 3 Zrotation Xrotation Yrotation
                End Site
                {
                  OFFSET 0 0 0
                }
              }
            }
          }
        }
      }
    }
  }
}
MOTION
Frames:	6
Frame Time:	0.0416667
-5.43143 98.5054 345.923 -144.791 -82.0223 -145.156 -173.794 -5.71225 90.655 -9.28189 4.82069 0.287213 66.7059 4.8799 0.220422 22.9079 -5.81314 4.95765 174.274 -3.17297 88.8707 -11.1442 -10.9283 -1.56868 64.4837 -2.657 0.141264 26.4386 -0.149051 3.61299 0.465015 7.541 -90.3333 11.7941 0.768172 -0.746022 0.123174 0.734583 -0.779117 -22.413 0.956862 -0.480669 -2.40032 0.956854 -0.48068 90.1783 -33.1043 -105.285 47.3805 5.57967 -5.58095 -5.42685 -43.9417 -5.53216 -25.2015 2.3128 -15.8017 -87.4859 -59.3295 83.9723 -27.0161 -11.6855 -16.7645 3.33045 35.5165 -4.40038 -5.386 0.0672353 -10.361 4.63881 -2.84069 -0.915183 -9.20966 -2.76303 1.73573 
-5.44188 98.5167 345.926 -144.59 -82.0295 -144.793 -173.528 -5.59424 91.0165 -9.66798 4.54679 0.116581 68.5849 5.81785 -1.19469 18.7452 -9.953 7.48753 174.255 -3.35519 88.9966 -10.7971 -11.2944 -1.45965 64.3869 -2.75156 -0.113904 26.3141 0.0516746 3.13136 0.430627 7.52374 -90.3192 11.8291 0.706238 -0.711668 0.158147 0.674243 -0.742069 -22.3778 0.887478 -0.466507 -2.36515 0.887475 -0.466515 89.2305 -33.9642 -106.756 46.8531 5.96023 -5.04861 -5.45382 -44.1657 -5.54219 -28.8043 2.47063 -15.0145 -87.3825 -57.6973 83.8768 -27.4843 -11.543 -15.7906 3.32866 35.5169 -4.39827 -4.51506 0.0932367 -14.0481 4.16459 -2.64253 -2.2719 -8.91558 -2.42943 3.17106 
-5.53135 98.5282 345.962 -145.078 -82.3114 -145.309 -173.605 -5.34239 91.0318 -9.71757 4.58023 0.231825 68.3284 5.55059 -1.43584 19.2725 -9.30449 7.00064 174.242 -3.26657 89.0297 -10.6124 -11.1236 -1.36779 64.2587 -2.69319 -0.211707 26.3557 -0.0391659 3.36578 0.30112 7.53588 -90.1303 11.8026 0.537641 -0.316806 0.131671 0.523178 -0.340165 -22.4043 0.607989 -0.140574 -2.39162 0.607994 -0.140574 87.039 -36.425 -109.849 45.2005 6.59094 -5.33184 -5.41832 -43.7011 -5.52132 -28.2748 2.43765 -15.104 -86.3713 -54.5419 84.8403 -27.9294 -11.2958 -16.0667 3.43554 37.6902 -4.50732 -4.86137 0.0919218 -12.7772 4.02833 -2.37179 -2.79511 -8.65002 -1.92796 1.12897 
-5.83809 98.5249 345.973 -149.675 -82.7501 -149.922 -173.109 -5.19375 91.5722 -9.60011 5.86039 -0.166059 68.3017 5.78094 -1.37759 19.2539 -9.35542 7.06049 174.431 -3.19562 89.3194 -10.9154 -10.6613 -1.35742 64.1736 -2.5003 -0.468194 26.4495 0.0346457 3.01647 0.273306 7.53328 -90.1916 11.8081 0.453455 -0.430286 0.137195 0.434083 -0.449836 -22.3983 0.561801 -0.274112 -2.38566 0.56181 -0.274112 87.5126 -35.7257 -109.265 45.1146 6.68029 -5.13257 -5.42399 -43.7773 -5.52484 -25.1556 2.39944 -16.1973 -86.693 -55.874 84.572 -26.9286 -11.7745 -16.2687 3.47004 38.3444 -4.54224 -6.34773 0.217054 -13.6484 3.74289 -2.32277 -1.63194 -8.28481 -2.03125 0.310823 
-6.31333 98.4895 345.831 -152.702 -82.4198 -153.05 -172.669 -5.35535 92.0501 -9.92252 5.85839 -0.39872 68.4826 6.06303 -1.93282 19.425 -9.10518 6.84305 174.546 -3.12072 89.5701 -11.8918 -10.3419 -1.3955 64.5113 -2.54689 -0.663245 26.2915 0.090927 3.0366 0.285161 7.60444 -90.1816 11.6658 0.482139 -0.412171 -0.00509685 0.463522 -0.433005 -22.5407 0.583713 -0.248216 -2.52809 0.583715 -0.248222 87.3929 -36.0724 -109.347 44.0039 7.18332 -5.00522 -5.42031 -43.7255 -5.52257 -20.8825 2.32702 -18.2103 -86.4899 -56.7036 84.9733 -27.2332 -11.6006 -16.5012 3.43191 37.6174 -4.5035 1.47089 -0.287774 -10.2445 2.51271 -2.82706 -1.32118 -7.06619 -2.54585 -0.667404 
-6.96911 98.434 345.478 -152.406 -82.3196 -153.241 -172.366 -4.94283 92.1927 -10.398 6.12046 -0.770256 68.2135 6.27263 -2.02888 19.6354 -9.39168 7.49351 174.507 -2.27802 89.5212 -13.2867 -10.4462 -1.3821 65.1127 -2.71066 -0.885478 26.2029 0.210821 2.77061 0.381979 7.6395 -90.0838 11.5958 0.720613 -0.241475 -0.0749583 0.709286 -0.272957 -22.6117 0.759863 -0.0137218 -2.59908 0.759868 -0.0137216 86.9435 -36.3118 -110.06 44.0768 7.18159 -4.89062 -5.40429 -43.5034 -5.51269 -23.1796 2.30309 -16.7246 -86.3669 -57.0356 85.1901 -26.2214 -12.1444 -16.0699 3.27567 34.4375 -4.34299 2.00297 -0.447633 -13.6998 3.20479 -2.21491 -1.84623 -8.29537 -1.9229 0.745647 
